<?xml version="1.0" standalone="no"?>
<!DOCTYPE svg PUBLIC "-//W3C//DTD SVG 20010904//EN"
 "http://www.w3.org/TR/2001/REC-SVG-20010904/DTD/svg10.dtd">
<svg version="1.0" xmlns="http://www.w3.org/2000/svg"
 width="700.000000pt" height="700.000000pt" viewBox="0 0 700.000000 700.000000"
 preserveAspectRatio="xMidYMid meet">
<metadata>
Created by potrace 1.11, written by Peter Selinger 2001-2013
</metadata>
<g transform="translate(0.000000,700.000000) scale(0.100000,-0.100000)"
fill="#000000" stroke="none">
<path d="M0 3500 l0 -3500 3500 0 3500 0 -2 778 -3 777 -190 0 -190 0 -3 1556
-2 1555 192 0 193 0 3 1167 2 1167 -3500 0 -3500 0 0 -3500z m6216 2717 c5 -4
8 -573 5 -737 l-1 -35 -192 0 -193 0 0 -2140 0 -2139 185 -2 c102 0 190 -2
195 -2 6 -1 10 -80 10 -212 l0 -210 -25 -1 c-14 -1 -28 -1 -31 -1 -4 1 -123 4
-265 7 -143 4 -317 8 -389 10 -71 2 -240 7 -375 10 -135 4 -296 8 -359 10
l-115 3 0 2333 -1 2334 -192 0 c-187 0 -193 0 -194 -20 0 -11 -1 -536 -1
-1167 l-1 -1148 -583 0 -584 0 -2 1167 -3 1168 -191 0 -191 0 0 -2328 c0
-1280 -3 -2330 -6 -2333 -8 -8 -1926 -8 -1934 -1 -4 5 -8 5268 -4 5414 1 16 8
22 29 25 49 5 5403 1 5408 -5z"/>
</g>
</svg>
