<?xml version="1.0" encoding="UTF-8" standalone="no"?>
<svg
   xmlns:dc="http://purl.org/dc/elements/1.1/"
   xmlns:cc="http://creativecommons.org/ns#"
   xmlns:rdf="http://www.w3.org/1999/02/22-rdf-syntax-ns#"
   xmlns:svg="http://www.w3.org/2000/svg"
   xmlns="http://www.w3.org/2000/svg"
   xmlns:sodipodi="http://sodipodi.sourceforge.net/DTD/sodipodi-0.dtd"
   xmlns:inkscape="http://www.inkscape.org/namespaces/inkscape"
   width="297.45001"
   height="337.341"
   viewBox="0 0 297.45001 337.341"
   version="1.1"
   id="svg24"
   sodipodi:docname="css3.svg"
   inkscape:export-filename="/home/michael/Desktop/Projects/project-mam/public/myImages/css3.png"
   inkscape:export-xdpi="64.550003"
   inkscape:export-ydpi="64.550003"
   inkscape:version="0.92.2 (unknown)">
  <metadata
     id="metadata28">
    <rdf:RDF>
      <cc:Work
         rdf:about="">
        <dc:format>image/svg+xml</dc:format>
        <dc:type
           rdf:resource="http://purl.org/dc/dcmitype/StillImage" />
        <dc:title>Slice 1</dc:title>
      </cc:Work>
    </rdf:RDF>
  </metadata>
  <sodipodi:namedview
     pagecolor="#ffffff"
     bordercolor="#666666"
     borderopacity="1"
     objecttolerance="10"
     gridtolerance="10"
     guidetolerance="10"
     inkscape:pageopacity="0"
     inkscape:pageshadow="2"
     inkscape:window-width="1871"
     inkscape:window-height="1062"
     id="namedview26"
     showgrid="false"
     inkscape:pagecheckerboard="true"
     fit-margin-top="0"
     fit-margin-left="0"
     fit-margin-right="0"
     fit-margin-bottom="0"
     inkscape:zoom="2.247619"
     inkscape:cx="39.295232"
     inkscape:cy="164.61725"
     inkscape:window-x="49"
     inkscape:window-y="18"
     inkscape:window-maximized="1"
     inkscape:current-layer="svg24" />
  <title
     id="title2">Slice 1</title>
  <description>Created with Sketch (http://www.bohemiancoding.com/sketch)</description>
  <defs
     id="defs4" />
  <g
     id="Page 1"
     style="fill:none;fill-rule:evenodd;stroke:none;stroke-width:1"
     transform="translate(-0.071,-82.67)">
    <g
       id="Layer_1">
      <path
         d="M 27.142,386.29 0.071,82.67 h 297.45 l -27.096,303.571 -121.811,33.77 z m 0,0"
         id="path7"
         inkscape:connector-curvature="0"
         style="fill:#1572b6" />
      <path
         d="m 148.798,394.199 98.427,-27.288 23.157,-259.415 H 148.798 Z m 0,0"
         id="path9"
         inkscape:connector-curvature="0"
         style="fill:#33a9dc" />
      <g
         id="Group"
         transform="translate(55,142)">
        <path
           d="m 93.797,75.496 h 49.275 l 3.403,-38.132 H 93.797 V 0.125 h 0.129 93.246 l -0.893,9.991 -9.152,102.616 h -83.33 z m 0,0"
           id="path11"
           inkscape:connector-curvature="0"
           style="fill:#ffffff" />
        <path
           d="M 94.02,172.204 93.857,172.25 52.385,161.051 49.733,131.353 H 29.582 12.354 l 5.216,58.467 76.278,21.176 0.172,-0.048 z m 0,0"
           id="path13"
           inkscape:connector-curvature="0"
           style="fill:#ebebeb" />
        <path
           d="m 139.907,111.156 -4.484,49.87 -41.532,11.21 v 38.742 l 76.339,-21.158 0.56,-6.29 6.478,-72.374 z m 0,0"
           id="path15"
           inkscape:connector-curvature="0"
           style="fill:#ffffff" />
        <path
           d="m 93.926,0.125 v 23.128 14.019 0.092 H 4.098 3.979 L 3.232,28.994 1.535,10.116 0.645,0.125 Z m 0,0"
           id="path17"
           inkscape:connector-curvature="0"
           style="fill:#ebebeb" />
        <path
           d="m 93.797,75.5 v 23.129 14.017 0.092 H 52.969 52.85 L 52.104,104.369 50.406,85.491 49.516,75.5 Z m 0,0"
           id="path19"
           inkscape:connector-curvature="0"
           style="fill:#ebebeb" />
      </g>
    </g>
  </g>
</svg>
